        <svg xmlns="http://www.w3.org/2000/svg" xmlns:xlink="http://www.w3.org/1999/xlink" version="1.1" width="958.3745509306195" height="958.3745509306195" viewBox="0 0 958.3745509306195 958.3745509306195">
          <g transform="scale(8.11041548093341) translate(10, 10)">
            <defs id="SvgjsDefs1360"></defs>
            <g id="SvgjsG1361" featureKey="symbolFeature-0" transform="matrix(0.9816393857057392,0,0,0.9816393857057392,-3.0293391105859975,0.00098156823722121)" fill="#7cbb00">
              <rect xmlns="http://www.w3.org/2000/svg" x="42.607" y="47.076" transform="matrix(0.7761 0.6306 -0.6306 0.7761 46.5672 -14.0771)" width="1" height="22.92">
              </rect>
              <rect xmlns="http://www.w3.org/2000/svg" x="45.986" y="57.948" transform="matrix(0.6084 0.7937 -0.7937 0.6084 68.7434 -22.4141)" width="22.194" height="1">
              </rect>
              <rect xmlns="http://www.w3.org/2000/svg" x="61.209" y="34.391" transform="matrix(0.285 0.9585 -0.9585 0.285 88.4619 -26.0748)" width="1" height="23.738">
              </rect>
              <rect xmlns="http://www.w3.org/2000/svg" x="38.984" y="37.368" transform="matrix(0.0074 1 -1 0.0074 88.2466 -13.1692)" width="23.546" height="1">
              </rect>
              <rect xmlns="http://www.w3.org/2000/svg" x="27.744" y="45.76" transform="matrix(0.9562 0.2928 -0.2928 0.9562 15.2685 -9.4777)" width="23.094" height="1">
              </rect>
              <rect xmlns="http://www.w3.org/2000/svg" x="35.832" y="34.683" transform="matrix(0.9456 0.3253 -0.3253 0.9456 16.6429 -9.3663)" width="1" height="20.809">
              </rect>
              <rect xmlns="http://www.w3.org/2000/svg" x="31.072" y="60.446" transform="matrix(0.8221 0.5694 -0.5694 0.8221 42.108 -12.8663)" width="21.141" height="1">
              </rect>
              <rect xmlns="http://www.w3.org/2000/svg" x="58.047" y="51.212" transform="matrix(0.5722 0.8201 -0.8201 0.5722 75.2668 -21.8197)" width="1" height="20.036">
              </rect>
              <rect xmlns="http://www.w3.org/2000/svg" x="53.541" y="45.129" transform="matrix(0.2845 0.9587 -0.9587 0.2845 89.4167 -28.5477)" width="20.584" height="1">
              </rect>
              <rect xmlns="http://www.w3.org/2000/svg" x="39.708" y="35.004" transform="matrix(0.9997 0.0243 -0.0243 0.9997 0.8776 -1.2119)" width="21.201" height="1">
              </rect>
              <rect xmlns="http://www.w3.org/2000/svg" x="36.331" y="59.987" transform="matrix(0.5784 0.8158 -0.8158 0.5784 77.9659 2.2244)" width="1" height="33.1">
              </rect>
              <rect xmlns="http://www.w3.org/2000/svg" x="55.959" y="70.302" transform="matrix(0.3351 0.9422 -0.9422 0.3351 114.7194 -20.9532)" width="32.492" height="1">
              </rect>
              <rect xmlns="http://www.w3.org/2000/svg" x="76.946" y="19.044" transform="matrix(0.0107 0.9999 -0.9999 0.0107 112.198 -42.2379)" width="1" height="33.083">
              </rect>
              <rect xmlns="http://www.w3.org/2000/svg" x="44.371" y="2.123" transform="matrix(0.9527 0.3039 -0.3039 0.9527 7.9224 -12.733)" width="0.999" height="33.928">
              </rect>
              <rect xmlns="http://www.w3.org/2000/svg" x="3.101" y="44.487" transform="matrix(0.8004 0.5995 -0.5995 0.8004 30.9 -2.8183)" width="33.161" height="1">
              </rect>
              <rect xmlns="http://www.w3.org/2000/svg" x="13.446" y="11.595" transform="matrix(0.9605 0.2782 -0.2782 0.9605 11.716 -2.2955)" width="1" height="57.08">
              </rect>
              <rect xmlns="http://www.w3.org/2000/svg" x="1.626" y="81.812" transform="matrix(0.8375 0.5464 -0.5464 0.8375 49.6273 -2.2773)" width="54.033" height="1">
              </rect>
              <rect xmlns="http://www.w3.org/2000/svg" x="71.659" y="52.69" transform="matrix(0.6376 0.7704 -0.7704 0.6376 87.6254 -26.6706)" width="1" height="54.215">
              </rect>
              <rect xmlns="http://www.w3.org/2000/svg" x="55.738" y="36.926" transform="matrix(0.377 0.9262 -0.9262 0.377 86.266 -53.4047)" width="54.19" height="1">
              </rect>
              <rect xmlns="http://www.w3.org/2000/svg" x="46.824" y="-12.954" transform="matrix(0.0146 0.9999 -0.9999 0.0146 58.9718 -35.1579)" width="1" height="50.592">
              </rect>
              <rect xmlns="http://www.w3.org/2000/svg" x="6.016" y="66.991" width="29.866" height="1">
              </rect>
              <rect xmlns="http://www.w3.org/2000/svg" x="9.472" y="27.565" transform="matrix(0.2024 0.9793 -0.9793 0.2024 47.599 -2.3107)" width="31.493" height="1">
              </rect>
              <rect xmlns="http://www.w3.org/2000/svg" x="61.126" y="6.058" transform="matrix(0.5429 0.8398 -0.8398 0.5429 44.2475 -43)" width="1" height="26.18">
              </rect>
              <rect xmlns="http://www.w3.org/2000/svg" x="69.065" y="52.2" transform="matrix(0.7128 0.7014 -0.7014 0.7128 60.8208 -43.1259)" width="28.006" height="1">
              </rect>
              <rect xmlns="http://www.w3.org/2000/svg" x="57.052" y="65.986" transform="matrix(0.9215 0.3885 -0.3885 0.9215 36.441 -15.9049)" width="1" height="32.356">
              </rect>
              <circle xmlns="http://www.w3.org/2000/svg" cx="6.41" cy="35.047" r="2.928">
              </circle>
              <circle xmlns="http://www.w3.org/2000/svg" cx="32.979" cy="55.017" r="4.79">
              </circle>
              <circle xmlns="http://www.w3.org/2000/svg" cx="93.05" cy="62.521" r="2.928">
              </circle>
              <circle xmlns="http://www.w3.org/2000/svg" cx="93.987" cy="35.41" r="2.927">
              </circle>
              <circle xmlns="http://www.w3.org/2000/svg" cx="51.269" cy="97.073" r="2.928">
              </circle>
              <circle xmlns="http://www.w3.org/2000/svg" cx="6.014" cy="67.55" r="2.928">
              </circle>
              <circle xmlns="http://www.w3.org/2000/svg" cx="50.332" cy="49.641" r="5.511">
              </circle>
              <circle xmlns="http://www.w3.org/2000/svg" cx="39.816" cy="35" r="4.789">
              </circle>
              <circle xmlns="http://www.w3.org/2000/svg" cx="60.904" cy="35.842" r="4.79">
              </circle>
              <circle xmlns="http://www.w3.org/2000/svg" cx="77.649" cy="86.109" r="2.927">
              </circle>
              <circle xmlns="http://www.w3.org/2000/svg" cx="50.635" cy="67.21" r="4.79">
              </circle>
              <circle xmlns="http://www.w3.org/2000/svg" cx="66.735" cy="55.478" r="4.79">
              </circle>
              <circle xmlns="http://www.w3.org/2000/svg" cx="28.249" cy="42.878" r="2.028">
              </circle>
              <circle xmlns="http://www.w3.org/2000/svg" cx="50.633" cy="26.257" r="1.929">
              </circle>
              <circle xmlns="http://www.w3.org/2000/svg" cx="35.881" cy="67.432" r="2.128">
              </circle>
              <circle xmlns="http://www.w3.org/2000/svg" cx="63.833" cy="67.256" r="2.053">
              </circle>
              <circle xmlns="http://www.w3.org/2000/svg" cx="50.031" cy="2.927" r="2.928">
              </circle>
              <circle xmlns="http://www.w3.org/2000/svg" cx="72.616" cy="12.331" r="2.928">
              </circle>
              <circle xmlns="http://www.w3.org/2000/svg" cx="73.085" cy="42.878" r="2.225">
              </circle>
              <circle xmlns="http://www.w3.org/2000/svg" cx="23.331" cy="86.109" r="2.928">
              </circle>
              <circle xmlns="http://www.w3.org/2000/svg" cx="22.03" cy="12.645" r="2.928">
              </circle>
            </g>
            
          </g>
        </svg>